<?xml version="1.0" encoding="utf-8"?>
<!-- Generator: Adobe Illustrator 23.0.1, SVG Export Plug-In . SVG Version: 6.00 Build 0)  -->
<svg version="1.1" id="Layer_1" xmlns="http://www.w3.org/2000/svg" xmlns:xlink="http://www.w3.org/1999/xlink" x="0px" y="0px"
	 viewBox="0 0 32.2 32.2" style="enable-background:new 0 0 32.2 32.2;" xml:space="preserve">
<style type="text/css">
	.st0{fill:#152044;}
</style>
<g>
	<g>
		<path class="st0" d="M16.1,32.2C7.2,32.2,0,25,0,16.1S7.2,0,16.1,0s16.1,7.2,16.1,16.1S25,32.2,16.1,32.2z M16.1,0.9
			C7.8,0.9,1,7.7,1,16s6.8,15.1,15.1,15.1S31.2,24.3,31.2,16S24.4,0.9,16.1,0.9z"/>
	</g>
	<g>
		<path class="st0" d="M14.3,26c-0.1,0-0.3,0-0.4-0.1c-0.3-0.1-0.6-0.3-0.7-0.7c-0.1-0.3-0.2-0.6,0-1c0-0.1,0.1-0.2,0.1-0.3L13,23.4
			h-2.9c-0.2,0.5-0.7,0.9-1.3,0.9c-0.8,0-1.4-0.6-1.4-1.4c0-0.3,0.1-0.6,0.3-0.9l-1.6-2.7c-0.1-0.2-0.1-0.4,0-0.5L8.4,15
			c0.1-0.2,0.5-0.3,0.7-0.2c0.2,0.1,0.3,0.5,0.2,0.7L7.1,19l1.5,2.5c0.7-0.1,1.3,0.3,1.6,0.9h2.9l1.9-3.3c0.1-0.2,0.4-0.3,0.7-0.2
			c0.2,0.1,0.3,0.4,0.2,0.7L14,22.9l0.3,0.5c0.2,0,0.4,0,0.6,0.1l0,0c0.3,0.1,0.6,0.3,0.7,0.7c0.1,0.3,0.2,0.6,0,1
			C15.3,25.7,14.8,26,14.3,26z M14.3,24.5c-0.1,0-0.2,0.1-0.3,0.2c0,0.1,0,0.1,0,0.2s0.1,0.1,0.2,0.1c0.1,0.1,0.3,0,0.4-0.2
			c0-0.1,0-0.1,0-0.2C14.5,24.6,14.5,24.5,14.3,24.5C14.4,24.5,14.3,24.5,14.3,24.5z M8.5,22.6c-0.1,0.1-0.2,0.2-0.2,0.3
			c0,0.2,0.2,0.4,0.4,0.4c0.2,0,0.4-0.2,0.4-0.4C9.1,22.7,8.8,22.5,8.5,22.6L8.5,22.6L8.5,22.6z M8.7,25.5c-1.4,0-2.5-1.1-2.5-2.5
			c0-0.3,0.2-0.5,0.5-0.5s0.5,0.2,0.5,0.5c0,0.8,0.7,1.5,1.5,1.5c0.3,0,0.5,0.2,0.5,0.5S9,25.5,8.7,25.5z M12.6,22.1
			c-0.1,0-0.2,0-0.3-0.1c-0.2-0.1-0.3-0.4-0.2-0.7l1.5-2.5c0.1-0.2,0.4-0.3,0.7-0.2c0.2,0.1,0.3,0.4,0.2,0.7L13,21.8
			C12.9,22,12.7,22.1,12.6,22.1z M14.6,18.1c-0.2,0-0.3-0.1-0.4-0.2L13,15.8h-2.4c-0.2,0-0.3-0.1-0.4-0.2L8.1,12H7.3
			c-0.3,0-0.5-0.2-0.5-0.5S7,11,7.3,11h0.8l2-3.4L9.8,7.1c-0.2,0-0.4,0-0.6-0.1l0,0C8.9,6.9,8.6,6.7,8.5,6.3c-0.1-0.3-0.2-0.6,0-1
			c0.2-0.6,1-1,1.6-0.7c0.3,0.1,0.6,0.4,0.7,0.7c0.1,0.3,0.2,0.6,0,1c0,0.1-0.1,0.2-0.1,0.3L11,7.1h2.9c0.2-0.5,0.7-0.9,1.3-0.9
			c0.8,0,1.4,0.6,1.4,1.4c0,0.3-0.1,0.6-0.3,0.9l1.6,2.7c0.1,0.2,0.1,0.4,0,0.5l-2.1,3.5c-0.1,0.2-0.4,0.3-0.7,0.2
			c-0.2-0.1-0.3-0.4-0.2-0.7l2-3.3l-1.5-2.5C14.7,9,14.1,8.6,13.8,8h-2.9l-2,3.4l2,3.4h2.3l0,0c0.2,0,0.3,0.1,0.4,0.2l1.4,2.3
			c0.1,0.2,0.1,0.5-0.2,0.7C14.8,18.1,14.7,18.1,14.6,18.1z M15.1,7.1c-0.2,0-0.4,0.2-0.4,0.4c0,0.3,0.4,0.5,0.6,0.4l0,0l0,0
			c0.1-0.1,0.2-0.2,0.2-0.3C15.6,7.3,15.4,7.1,15.1,7.1z M9.4,6c0.1,0.1,0.3,0,0.4-0.2c0-0.1,0-0.1,0-0.2S9.7,5.5,9.6,5.5
			c-0.1-0.1-0.3,0-0.4,0.2c0,0.1,0,0.1,0,0.2C9.3,6,9.3,6,9.4,6z M9.8,11.9c-0.1,0-0.2,0-0.3-0.1c-0.2-0.1-0.3-0.4-0.2-0.7l1.5-2.5
			c0.1-0.2,0.4-0.3,0.7-0.2c0.2,0.1,0.3,0.4,0.2,0.7l-1.5,2.5C10.1,11.8,10,11.9,9.8,11.9z M17.1,8.1c-0.3,0-0.5-0.2-0.5-0.5
			c0-0.8-0.7-1.5-1.5-1.5c-0.3,0-0.5-0.2-0.5-0.5s0.2-0.5,0.5-0.5c1.4,0,2.5,1.1,2.5,2.5C17.6,7.8,17.4,8.1,17.1,8.1z"/>
	</g>
	<g>
		<path class="st0" d="M18.9,26c-0.1,0-0.3,0-0.4-0.1c-0.7-0.2-1.1-0.9-0.9-1.6l0.8-2.8c0.2-0.9,0.4-1.8,0.4-2.7V18l-1.3,1.1
			c-0.5,0.4-1.2,0.4-1.7-0.1c-0.2-0.2-0.3-0.5-0.3-0.8s0.2-0.6,0.4-0.8l3.3-2.9c0.2-0.2,0.4-0.2,0.6,0c-0.6-0.5-0.9-1.1-0.9-1.9
			c0-1.4,1.1-2.5,2.5-2.5s2.5,1.1,2.5,2.5c0,0.7-0.3,1.4-0.8,1.8c0.1,0,0.2,0.1,0.3,0.1l0.8,0.7l2.4,2.2c0.2,0.2,0.4,0.5,0.4,0.8
			s-0.1,0.6-0.3,0.8c-0.4,0.5-1.2,0.5-1.7,0.1L23.7,18v0.8c0,0.8,0.7,3.8,1,4.9l0.2,0.7c0.2,0.7-0.2,1.4-0.9,1.6
			c-0.4,0.1-0.7,0.1-1.1-0.1c-0.3-0.2-0.5-0.5-0.6-0.8l-1.2-4L20,25.2c-0.1,0.3-0.3,0.6-0.6,0.8C19.3,25.9,19.1,26,18.9,26z
			 M21.3,19.8c0.4,0,0.8,0.3,0.9,0.7l1.2,4.3c0,0.1,0.1,0.2,0.2,0.2s0.2,0.1,0.3,0c0.2-0.1,0.3-0.2,0.2-0.4l-0.2-0.7
			c-0.2-0.8-1.1-4.1-1.1-5.2v-1.9c0-0.2,0.1-0.4,0.3-0.5c0.2-0.1,0.4-0.1,0.5,0.1l2.1,1.8c0.1,0.1,0.2,0.1,0.3,0v-0.1
			c0,0,0-0.1-0.1-0.1l-3.3-2.9c-0.1-0.1-0.2-0.3-0.2-0.5c-0.8,0.4-2,0.3-2.8-0.3l0,0c0.2,0.2,0.2,0.5,0,0.7l-0.8,0.7l-2.4,2.2
			L16.3,18v0.1c0.1,0.1,0.2,0.1,0.3,0l2.1-1.8c0.1-0.1,0.4-0.2,0.5-0.1c0.2,0.1,0.3,0.3,0.3,0.5v1.9c0,1-0.1,2-0.4,3l-0.8,2.8
			c-0.1,0.2,0,0.4,0.2,0.4c0.1,0,0.2,0,0.3,0c0.1,0,0.1-0.1,0.2-0.2l1.2-4.3c0.1-0.3,0.3-0.6,0.6-0.6C21.1,19.8,21.2,19.8,21.3,19.8
			z M21.2,20.7L21.2,20.7L21.2,20.7z M21.4,11c-0.9,0-1.5,0.7-1.5,1.5s0.7,1.5,1.5,1.5s1.5-0.7,1.5-1.5S22.2,11,21.4,11z"/>
	</g>
</g>
</svg>
