<?xml version="1.0" encoding="utf-8"?>
<!-- Generator: Adobe Illustrator 23.0.1, SVG Export Plug-In . SVG Version: 6.00 Build 0)  -->
<svg version="1.1" id="Layer_1" xmlns="http://www.w3.org/2000/svg" xmlns:xlink="http://www.w3.org/1999/xlink" x="0px" y="0px"
	 viewBox="0 0 32.2 32.2" style="enable-background:new 0 0 32.2 32.2;" xml:space="preserve">
<style type="text/css">
	.st0{fill:#152044;}
</style>
<g>
	<g>
		<path class="st0" d="M16.1,32.2C7.2,32.2,0,25,0,16.1S7.2,0,16.1,0s16.1,7.2,16.1,16.1S25,32.2,16.1,32.2z M16.1,0.9
			C7.8,0.9,1,7.7,1,16s6.8,15.1,15.1,15.1S31.2,24.3,31.2,16S24.5,0.9,16.1,0.9z"/>
	</g>
	<g>
		<path class="st0" d="M19.6,26.8c-0.1,0-0.2,0-0.2-0.1c-0.2-0.1-0.3-0.3-0.3-0.4v-1.2l-1.4,0.8c-0.5,0.3-1.1,0.3-1.5,0
			c0,0-0.1,0-0.1-0.1L5.4,19.7c-0.4-0.2-0.7-0.6-0.9-1.1c-0.1-0.2-0.1-0.4-0.1-0.5c0-1,0.5-1.7,1.5-2.3l0.4-0.3
			c0.2-0.1,0.5-0.1,0.7,0.1c0.1,0.2,0.1,0.5-0.1,0.7l-0.5,0.3c-0.8,0.4-1,0.8-1,1.4l0,0c0,0,0,0.1,0,0.2c0.1,0.2,0.2,0.4,0.4,0.5
			l9.5,5.5c0-0.9,0.5-1.6,1.5-2.2l9.3-5.4c-0.2-0.1-0.3-0.5-0.2-0.7c0.1-0.2,0.4-0.4,0.7-0.2c0.3,0.2,0.5,0.5,0.5,0.9
			s-0.2,0.7-0.5,0.9l-9.3,5.4c-0.7,0.4-1,0.8-1,1.4c0,0.3,0.1,0.5,0.3,0.6c0.1,0.1,0.3,0.1,0.5,0l2.1-1.2c0.2-0.1,0.3-0.1,0.5,0
			s0.2,0.3,0.2,0.4v1.2l0.9-0.5V23l0,0c0-0.3-0.2-0.6-0.4-0.7s-0.3-0.4-0.2-0.7s0.4-0.3,0.7-0.2c0.3,0.2,0.6,0.5,0.8,0.8l4.5-2.6
			l-0.5-0.3c-0.2-0.2-0.3-0.5-0.1-0.7s0.5-0.3,0.7-0.1l1.1,0.7c0.1,0.1,0.2,0.3,0.2,0.4c0,0.2-0.1,0.3-0.3,0.4l-5.6,3.2V25
			c0,0.2-0.1,0.3-0.2,0.4l-1.9,1.1C19.8,26.8,19.7,26.8,19.6,26.8z M16.9,20.1c-0.2,0-0.5-0.1-0.7-0.2c0,0-0.1,0-0.1-0.1L5.4,13.7
			c-0.4-0.2-0.7-0.6-0.9-1.1c-0.1-0.2-0.1-0.4-0.1-0.5c0-1,0.5-1.7,1.5-2.3l0,0l10.2-5.9c0,0,0,0,0.1,0s0.1,0,0.2,0l0,0l0,0
			c0.1,0,0.1,0,0.2,0c0,0,0,0,0.1,0l10.1,5.8c0.3,0.2,0.5,0.5,0.5,0.9s-0.2,0.7-0.5,0.9l-9.3,5.4c-0.7,0.4-1,0.8-1,1.4
			c0,0.3,0.1,0.5,0.3,0.6l0,0l0,0c0.1,0.1,0.3,0.1,0.5,0l9.1-5.3l-0.5-0.3c-0.2-0.2-0.3-0.5-0.1-0.7c0.1-0.2,0.5-0.3,0.7-0.1
			l1.1,0.7c0.1,0.1,0.2,0.3,0.2,0.4c0,0.2-0.1,0.3-0.3,0.4l-9.8,5.7C17.4,20.1,17.2,20.1,16.9,20.1z M5.5,12.2c0,0,0,0.1,0,0.2
			c0.1,0.2,0.2,0.4,0.4,0.5l9.5,5.5c0-0.9,0.5-1.6,1.5-2.2l9.3-5.4l-9.8-5.7l-9.2,5.3l7.7,4.3c0.2,0.1,0.3,0.4,0.2,0.7
			c-0.1,0.2-0.4,0.3-0.7,0.2l-8.2-4.5C5.7,11.2,5.5,11.6,5.5,12.2L5.5,12.2z"/>
	</g>
</g>
</svg>
