<?xml version="1.0" encoding="utf-8"?>
<!-- Generator: Adobe Illustrator 23.0.1, SVG Export Plug-In . SVG Version: 6.00 Build 0)  -->
<svg version="1.1" id="Layer_1" xmlns="http://www.w3.org/2000/svg" xmlns:xlink="http://www.w3.org/1999/xlink" x="0px" y="0px"
	 viewBox="0 0 32.2 32.2" style="enable-background:new 0 0 32.2 32.2;" xml:space="preserve">
<style type="text/css">
	.st0{fill:#152044;}
</style>
<g>
	<g>
		<path class="st0" d="M16.1,32.2C7.2,32.2,0,25,0,16.1S7.2,0,16.1,0s16.1,7.2,16.1,16.1S25,32.2,16.1,32.2z M16.1,1
			C7.8,1,1,7.8,1,16.1s6.8,15.1,15.1,15.1s15.1-6.8,15.1-15.1S24.4,1,16.1,1z"/>
	</g>
	<g>
		<path class="st0" d="M25.1,20.5c-0.1,0-0.3,0-0.4-0.1c-0.3-0.1-0.5-0.3-0.7-0.6l-0.2-0.5c-0.6,0.1-1.2,0-1.8-0.2l-0.3,0.5
			c-0.2,0.3-0.4,0.4-0.7,0.5c-0.3,0.1-0.6,0-0.9-0.2l-0.8-0.6c-0.5-0.4-0.6-1.1-0.3-1.6l0.3-0.5c-0.3-0.5-0.6-1-0.7-1.6L18,15.5
			c-0.3,0-0.6-0.2-0.8-0.4C17,14.9,17,14.6,17,14.3l0.1-0.9c0.1-0.6,0.6-1.1,1.3-1.1l0.6,0.1c0.3-0.5,0.6-1,1-1.5l-0.2-0.5
			c-0.1-0.3-0.1-0.6,0-0.9s0.3-0.5,0.6-0.7l0.9-0.4c0.3-0.1,0.6-0.1,0.9,0c0.3,0.1,0.5,0.3,0.7,0.6l0.2,0.5c0.6-0.1,1.2,0,1.8,0.2
			L25,9.2c0.2-0.3,0.4-0.4,0.7-0.5c0.3-0.1,0.6,0,0.9,0.2l0.8,0.6c0.5,0.4,0.6,1.1,0.3,1.6l-0.3,0.5c0.3,0.5,0.6,1,0.7,1.6l0.6,0.1
			c0.3,0,0.6,0.2,0.8,0.4c0.2,0.2,0.3,0.5,0.3,0.8l-0.1,0.9c-0.1,0.6-0.6,1.1-1.3,1.1l-0.6-0.1c-0.3,0.5-0.6,1-1,1.5l0.2,0.5
			c0.3,0.6,0,1.3-0.6,1.5l-0.9,0.4C25.5,20.4,25.3,20.5,25.1,20.5z M24.2,18.2c0.2,0,0.4,0.1,0.5,0.3l0.4,0.9c0,0.1,0.1,0.1,0.2,0.1
			l0.9-0.4c0.1,0,0.1-0.1,0.1-0.2l-0.4-0.9c-0.1-0.2,0-0.4,0.1-0.6c0.5-0.4,0.9-1,1.2-1.7c0.1-0.2,0.3-0.3,0.5-0.3l0.9,0.1
			c0.1,0,0.2-0.1,0.2-0.1l0-0.5c0,0,0,0,0,0l0-0.5c0-0.1,0-0.1,0-0.1c0,0-0.1,0-0.1-0.1l-0.9-0.1c-0.2,0-0.4-0.2-0.4-0.4
			c-0.1-0.7-0.4-1.3-0.9-1.8c-0.1-0.2-0.2-0.4,0-0.6l0.5-0.8c0.1-0.1,0-0.2,0-0.2l-0.8-0.6c0,0-0.1,0-0.1,0c0,0-0.1,0-0.1,0.1
			l-0.5,0.8c-0.1,0.2-0.4,0.3-0.6,0.2c-0.6-0.2-1.3-0.3-2-0.2c-0.2,0-0.4-0.1-0.5-0.3l-0.4-0.9c0,0-0.1-0.1-0.1-0.1c0,0-0.1,0-0.1,0
			l-0.9,0.4c-0.1,0-0.1,0.1-0.1,0.2l0.4,0.9c0.1,0.2,0,0.4-0.1,0.6c-0.5,0.4-0.9,1-1.2,1.7c-0.1,0.2-0.3,0.3-0.5,0.3l-0.9-0.1
			c-0.1,0-0.2,0.1-0.2,0.1L18,14.3c0,0.1,0,0.1,0,0.1c0,0,0,0.1,0.1,0.1l0.9,0.1c0.2,0,0.4,0.2,0.4,0.4c0.1,0.7,0.4,1.3,0.9,1.8
			c0.1,0.2,0.2,0.4,0,0.6l-0.5,0.8c-0.1,0.1,0,0.2,0,0.2l0.8,0.6c0,0,0.1,0,0.1,0c0,0,0.1,0,0.1-0.1l0.5-0.8
			c0.1-0.2,0.4-0.3,0.6-0.2C22.7,18.3,23.4,18.3,24.2,18.2C24.1,18.2,24.1,18.2,24.2,18.2z M23.4,17.7c-0.1,0-0.2,0-0.3,0
			c-1.8-0.2-3.2-1.8-3-3.6c0.1-0.9,0.5-1.7,1.2-2.3c0.7-0.6,1.5-0.8,2.4-0.8c1.8,0.2,3.2,1.8,3,3.6c-0.1,0.9-0.5,1.7-1.2,2.3
			C24.9,17.4,24.2,17.7,23.4,17.7z M23.4,12c-0.5,0-1.1,0.2-1.5,0.5c-0.5,0.4-0.8,1-0.8,1.6c-0.1,1.3,0.8,2.4,2.1,2.5
			c0.6,0.1,1.2-0.1,1.7-0.5c0.5-0.4,0.8-1,0.8-1.6c0.1-1.3-0.8-2.4-2.1-2.5C23.5,12,23.5,12,23.4,12z"/>
	</g>
	<g>
		<path class="st0" d="M14.1,27.3c-0.1,0-0.3,0-0.4-0.1c-0.3-0.1-0.5-0.3-0.6-0.6l-0.2-0.5c-0.5,0-1.1,0-1.6-0.1L11,26.4
			c-0.2,0.2-0.4,0.4-0.7,0.5c-0.3,0-0.6,0-0.8-0.2l-0.8-0.6c-0.5-0.3-0.6-1-0.3-1.5l0.3-0.4c-0.3-0.4-0.5-0.9-0.7-1.5l-0.5,0
			c-0.6-0.1-1.1-0.6-1-1.2l0.1-0.8c0-0.3,0.2-0.6,0.4-0.8c0.2-0.2,0.5-0.3,0.8-0.3l0.5,0c0.2-0.5,0.5-0.9,0.9-1.3L9,17.9
			c-0.3-0.6,0-1.2,0.5-1.5l0.9-0.4c0.3-0.1,0.6-0.1,0.8,0c0.3,0.1,0.5,0.3,0.6,0.6l0.2,0.5c0.5,0,1.1,0,1.6,0.1l0.3-0.4
			c0.2-0.2,0.4-0.4,0.7-0.5c0.3-0.1,0.6,0,0.8,0.2l0.8,0.6c0.5,0.3,0.6,1,0.3,1.5L16.3,19c0.3,0.4,0.5,0.9,0.7,1.5l0.5,0
			c0.3,0,0.6,0.2,0.7,0.4s0.3,0.5,0.3,0.8l0,0.4v0l0,0.4c-0.1,0.6-0.6,1.1-1.2,1l-0.5,0c-0.2,0.5-0.5,0.9-0.9,1.3l0.2,0.5
			c0.3,0.6,0,1.2-0.5,1.5l-0.9,0.4C14.4,27.2,14.3,27.3,14.1,27.3z M14,26.2c0,0,0.1,0.1,0.1,0.1l0,0l0.9-0.4c0.1,0,0.1-0.1,0.1-0.1
			l-0.4-0.8c-0.1-0.2,0-0.4,0.1-0.6c0.5-0.4,0.8-0.9,1.1-1.5c0.1-0.2,0.3-0.3,0.5-0.3l0.9,0.1c0.1,0,0.1,0,0.1-0.1l0-0.4
			c0,0,0,0,0,0l0-0.4c0,0-0.1-0.1-0.1-0.1l-0.9-0.1c-0.2,0-0.4-0.2-0.4-0.4c-0.1-0.6-0.4-1.2-0.8-1.7c-0.1-0.2-0.2-0.4,0-0.6
			l0.5-0.7c0,0,0-0.1,0-0.1l-0.8-0.6l-0.1,0l-0.5,0.7c-0.1,0.2-0.4,0.3-0.6,0.2c-0.6-0.2-1.2-0.3-1.8-0.2c-0.2,0-0.4-0.1-0.5-0.3
			L11,17l0,0c0,0-0.1-0.1-0.1-0.1l0,0L10,17.4c-0.1,0-0.1,0.1-0.1,0.1l0.4,0.8c0.1,0.2,0,0.4-0.1,0.6c-0.5,0.4-0.8,0.9-1.1,1.5
			c-0.1,0.2-0.3,0.3-0.5,0.3l-0.9-0.1l-0.4,0c0,0,0,0,0.1,0l0.2,0l-0.1,0.8c0,0.1,0,0.1,0.1,0.1l0.9,0.1c0.2,0,0.4,0.2,0.4,0.4
			c0.1,0.6,0.4,1.2,0.8,1.7c0.1,0.2,0.2,0.4,0,0.6l-0.5,0.7c0,0,0,0.1,0,0.1l0.8,0.6l0.6,0.3l-0.4-0.3l0.5-0.7
			c0.1-0.2,0.4-0.3,0.6-0.2c0.6,0.2,1.2,0.3,1.8,0.2c0.2,0,0.4,0.1,0.5,0.3L14,26.2L14,26.2z M12.5,24.7c-0.1,0-0.2,0-0.3,0
			c-1.7-0.2-3-1.7-2.8-3.4c0.1-0.8,0.5-1.6,1.1-2.1c0.6-0.5,1.4-0.8,2.3-0.7c1.7,0.2,3,1.7,2.8,3.4l0,0c-0.1,0.8-0.5,1.6-1.1,2.1
			C13.9,24.5,13.2,24.7,12.5,24.7z M12.5,19.5c-0.5,0-1,0.2-1.3,0.5c-0.4,0.4-0.7,0.9-0.7,1.4c-0.1,1.2,0.8,2.2,1.9,2.3
			c0.6,0.1,1.1-0.1,1.5-0.5c0.4-0.4,0.7-0.9,0.7-1.4c0.1-1.2-0.8-2.2-1.9-2.3C12.6,19.5,12.6,19.5,12.5,19.5z M15.1,21.8L15.1,21.8
			L15.1,21.8z"/>
	</g>
	<g>
		<path class="st0" d="M11.5,14.8c-0.2,0-0.4-0.1-0.6-0.2c-0.2-0.2-0.4-0.4-0.4-0.7l-0.1-0.4c-0.4-0.1-0.8-0.2-1.2-0.4l-0.3,0.2
			c-0.2,0.2-0.5,0.3-0.7,0.2c-0.3,0-0.5-0.1-0.7-0.4L7,12.7c-0.4-0.4-0.3-1.1,0.1-1.4L7.4,11c-0.1-0.4-0.2-0.9-0.2-1.3L6.8,9.6
			C6.2,9.4,6,8.8,6.2,8.3l0.1-0.3c0,0,0,0,0,0l0.1-0.3C6.5,7.3,6.7,7.1,6.9,7c0.2-0.1,0.5-0.1,0.8,0L8,7.1c0.3-0.3,0.6-0.6,1-0.9
			L8.9,5.8C8.8,5.3,9.2,4.7,9.7,4.6l0.8-0.2c0.3,0,0.5,0,0.8,0.2c0.2,0.2,0.4,0.4,0.4,0.7l0.1,0.4c0.4,0.1,0.8,0.2,1.2,0.4l0.3-0.2
			c0.2-0.2,0.5-0.3,0.7-0.2c0.3,0,0.5,0.1,0.7,0.4l0.5,0.6C15.6,7,15.5,7.7,15.1,8l-0.3,0.3c0.1,0.4,0.2,0.9,0.2,1.3l0.4,0.1
			c0.5,0.2,0.8,0.8,0.6,1.3l-0.2,0.7c-0.1,0.3-0.3,0.5-0.5,0.6c-0.2,0.1-0.5,0.1-0.8,0l-0.3-0.1c-0.3,0.3-0.6,0.6-1,0.9l0.1,0.4
			c0.1,0.6-0.3,1.1-0.8,1.2l-0.8,0.2C11.6,14.8,11.6,14.8,11.5,14.8z M9.2,12c0.1,0,0.2,0,0.3,0.1c0.4,0.3,0.9,0.5,1.4,0.5
			c0.2,0,0.4,0.2,0.5,0.4l0.1,0.7l0.8-0.1l-0.1-0.8c0-0.2,0.1-0.4,0.3-0.5c0.5-0.2,0.9-0.6,1.2-1c0.1-0.2,0.4-0.3,0.6-0.2l0.7,0.2
			l0.2-0.7l-0.7-0.3c-0.2-0.1-0.3-0.3-0.3-0.5c0-0.5-0.1-1.1-0.3-1.5c-0.1-0.2,0-0.4,0.1-0.6l0.6-0.5l-0.5-0.7l-0.6,0.5
			c-0.2,0.2-0.4,0.2-0.6,0c-0.4-0.3-0.9-0.5-1.4-0.5c-0.2,0-0.4-0.2-0.5-0.4l-0.1-0.7L9.9,5.6L10,6.4c0,0.2-0.1,0.4-0.3,0.5
			c-0.5,0.2-0.9,0.6-1.2,1C8.5,8.1,8.3,8.2,8,8.1L7.3,7.9L7.2,8.2c0,0,0,0,0,0L7.1,8.6l0.7,0.3C8,8.9,8.1,9.1,8.1,9.4
			c0,0.5,0.1,1.1,0.3,1.5c0.1,0.2,0,0.4-0.1,0.6L7.7,12l0.5,0.7l0.6-0.5C8.9,12.1,9,12,9.2,12z M11.1,12.4c-0.3,0-0.6-0.1-0.9-0.2
			c-1.4-0.5-2.2-2.1-1.7-3.5C8.8,8,9.3,7.5,9.9,7.1C10.6,6.8,11.3,6.8,12,7c1.4,0.5,2.2,2.1,1.7,3.5l0,0c-0.2,0.7-0.7,1.3-1.4,1.6
			C11.9,12.3,11.5,12.4,11.1,12.4z M11.1,7.9c-0.2,0-0.5,0.1-0.7,0.2C10,8.2,9.6,8.6,9.5,9C9.2,10,9.7,11,10.5,11.3
			c0.4,0.2,0.9,0.1,1.3-0.1c0.4-0.2,0.7-0.6,0.9-1C13,9.3,12.6,8.3,11.7,8C11.5,7.9,11.3,7.9,11.1,7.9z M13.2,10.4L13.2,10.4
			L13.2,10.4z"/>
	</g>
</g>
</svg>
