<?xml version="1.0" encoding="utf-8"?>
<!-- Generator: Adobe Illustrator 23.0.1, SVG Export Plug-In . SVG Version: 6.00 Build 0)  -->
<svg version="1.1" id="Layer_1" xmlns="http://www.w3.org/2000/svg" xmlns:xlink="http://www.w3.org/1999/xlink" x="0px" y="0px"
	 viewBox="0 0 32.2 32.2" style="enable-background:new 0 0 32.2 32.2;" xml:space="preserve">
<style type="text/css">
	.st0{fill:#152044;}
</style>
<g>
	<g>
		<path class="st0" d="M16.1,32.2C7.2,32.2,0,25,0,16.1S7.2,0,16.1,0s16.1,7.2,16.1,16.1S25,32.2,16.1,32.2z M16.1,0.9
			C7.8,0.9,1,7.7,1,16s6.8,15.1,15.1,15.1S31.2,24.3,31.2,16S24.4,0.9,16.1,0.9z"/>
	</g>
	<g>
		<path class="st0" d="M16.1,27.2c-0.6,0-1.2-0.2-1.8-0.6c-0.2-0.2-0.3-0.5-0.1-0.7s0.5-0.3,0.7-0.1c0.4,0.3,0.8,0.4,1.2,0.4
			c1.8,0,3.3-2.7,4-6.4c-0.4,0.3-0.9,0.6-1.3,0.8c-0.3,0.2-0.5,0.3-0.8,0.5c-0.5,0.3-1.1,0.5-1.6,0.8c-0.3,0.1-0.5,0-0.7-0.3
			s0-0.5,0.3-0.7c0.5-0.2,1-0.5,1.5-0.7c0.3-0.1,0.5-0.3,0.8-0.4c0.7-0.4,1.4-0.9,2-1.3c0.1-0.8,0.1-1.6,0.1-2.4
			c0-2.4-0.4-4.6-1-6.4c0,0,0,0,0-0.1c-0.8-2.3-2-3.7-3.3-3.7c-1.2,0-2.3,1.3-3.1,3.2c0.5,0.1,1.1,0.3,1.6,0.5
			c0.3,0.1,0.4,0.4,0.3,0.6s-0.4,0.4-0.6,0.3c-0.6-0.2-1.1-0.3-1.7-0.5c-0.5,1.7-0.8,3.8-0.8,6c0,1.9,0.2,3.7,0.6,5.3
			c0.1,0.3-0.1,0.5-0.4,0.6c-0.3,0.1-0.5-0.1-0.6-0.4c-0.4-1.7-0.7-3.6-0.7-5.5c0-0.5,0-1.1,0-1.6c-2.9,2.5-4.4,5.2-3.5,6.7
			c0.5,0.9,1.6,1.1,2.5,1.2c0.3,0,0.5,0.3,0.5,0.5s-0.3,0.5-0.5,0.5c-1.6-0.1-2.7-0.7-3.3-1.7c-1.2-2.1,0.6-5.5,4.5-8.5
			c0.6-4.8,2.6-8.2,5.1-8.2c1.7,0,3.1,1.6,4.1,4c2.7-0.4,4.7,0.1,5.5,1.5c0.1,0.2,0.1,0.5-0.2,0.7c-0.2,0.1-0.5,0.1-0.7-0.2
			c-0.6-1-2.2-1.4-4.3-1.1c0.5,1.8,0.8,3.9,0.8,6.2C21.4,22.3,19.1,27.2,16.1,27.2z M25.1,15.6c-1.1,0-2-0.9-2-2.1
			c0-1.1,0.9-2.1,2-2.1s2,0.9,2,2.1S26.2,15.6,25.1,15.6z M25.1,12.5c-0.6,0-1,0.5-1,1.1s0.5,1.1,1,1.1s1-0.5,1-1.1
			S25.7,12.5,25.1,12.5z"/>
	</g>
	<g>
		<path class="st0" d="M8.9,10.5c-0.8,0-1.5-0.7-1.5-1.5s0.7-1.5,1.5-1.5s1.5,0.7,1.5,1.5S9.7,10.5,8.9,10.5z M8.9,8.5
			C8.6,8.5,8.4,8.7,8.4,9s0.2,0.5,0.5,0.5S9.4,9.3,9.4,9S9.1,8.5,8.9,8.5z"/>
	</g>
	<g>
		<path class="st0" d="M12.6,26.1c-0.8,0-1.5-0.7-1.5-1.5s0.7-1.5,1.5-1.5s1.5,0.7,1.5,1.5S13.5,26.1,12.6,26.1z M12.6,24.1
			c-0.3,0-0.5,0.2-0.5,0.5s0.2,0.5,0.5,0.5s0.5-0.2,0.5-0.5C13.1,24.3,12.9,24.1,12.6,24.1z"/>
	</g>
	<g>
		<path class="st0" d="M21.8,23.1c-0.6,0-1.3-0.1-2.1-0.2c-2-0.4-4.2-1.2-6.3-2.3c-3.7-2.1-6.6-5-7.2-7.3C6,12.4,6,11.5,6.4,10.9
			c0.1-0.2,0.4-0.3,0.7-0.2c0.2,0.1,0.3,0.4,0.2,0.7C7,11.8,7,12.4,7.2,13c0.6,2.1,3.2,4.8,6.7,6.7c2,1.1,4.1,1.9,6,2.2
			c2.4,0.4,4.3,0.1,4.9-0.9c0.3-0.4,0.3-1,0.1-1.6c-0.6-2.1-3.2-4.8-6.7-6.7c-0.6-0.3-1.3-0.7-1.9-0.9c-0.5,0.2-2.1,0.9-3,1.5
			c-0.2,0.1-0.5,0.1-0.7-0.2c-0.1-0.2-0.1-0.5,0.2-0.7c1.2-0.7,3.3-1.6,3.4-1.7c0.1-0.1,0.3-0.1,0.4,0c0.7,0.3,1.5,0.7,2.2,1.1
			c3.7,2.1,6.6,5,7.2,7.3c0.2,0.9,0.2,1.8-0.2,2.4C25,22.6,23.7,23.1,21.8,23.1z"/>
	</g>
</g>
</svg>
