<?xml version="1.0" encoding="utf-8"?>
<!-- Generator: Adobe Illustrator 23.0.1, SVG Export Plug-In . SVG Version: 6.00 Build 0)  -->
<svg version="1.1" id="Layer_1" xmlns="http://www.w3.org/2000/svg" xmlns:xlink="http://www.w3.org/1999/xlink" x="0px" y="0px"
	 viewBox="0 0 32.2 32.2" style="enable-background:new 0 0 32.2 32.2;" xml:space="preserve">
<style type="text/css">
	.st0{fill:#152044;}
</style>
<g>
	<g>
		<path class="st0" d="M16.1,32.2C7.2,32.2,0,25,0,16.1S7.2,0,16.1,0s16.1,7.2,16.1,16.1S25,32.2,16.1,32.2z M16.1,1
			C7.8,1,1,7.8,1,16.1s6.8,15.1,15.1,15.1s15.1-6.8,15.1-15.1S24.5,1,16.1,1z"/>
	</g>
	<g>
		<path class="st0" d="M20,25.4h-8.5c-0.8,0-1.5-0.4-1.9-1.1c-0.6-0.9-0.7-2.1-0.2-3.1l4.2-9.4V7.4C13,7.1,12.7,6.6,12.7,6V5.1
			c0-0.3,0.2-0.5,0.5-0.5h4.9c0.3,0,0.5,0.2,0.5,0.5V6c0,0.7-0.3,1.2-0.8,1.4v4.4l1.3,2.8c0.2-0.5,0.6-0.9,1.1-1.3
			c0.1-0.1,0.3-0.2,0.4-0.3c0.2-0.2,0.5-0.3,0.6-0.5c0.1-0.1,0.2-0.2,0.4-0.2l0,0c0.2,0,0.3,0.1,0.4,0.2c0.2,0.2,0.4,0.4,0.6,0.5
			c0.1,0.1,0.3,0.2,0.4,0.3c0.9,0.7,1.5,1.5,1.3,2.7c0.1,0,0.1,0,0.2,0c0.3,0,0.5-0.1,0.8-0.1c0.5,0,0.9-0.1,1.3-0.2
			c0.1,0,0.3,0,0.4,0.1c0.1,0.1,0.2,0.2,0.2,0.3c0.2,0.8,0.3,1.7,0.2,2.6c-0.1,1.1-0.6,2-1.3,2.4c-0.6,0.4-1.2,0.4-1.8,0.5
			c-0.7,0-1.8-0.2-1.9-0.2c-0.1,0-0.1,0-0.2-0.1c-0.1,0.2-0.2,0.5-0.2,0.7v0.7c0,1.4-0.9,2.6-2.1,2.7L20,25.4z M14.5,10.3v1.6
			c0,0.1,0,0.1,0,0.2l-4.3,9.5c-0.3,0.7-0.2,1.5,0.1,2.1c0.2,0.2,0.5,0.7,1.1,0.7H20c0.7-0.1,1.3-0.8,1.3-1.7V22
			c-0.1-0.2-0.1-0.5-0.2-0.7c-0.1,0-0.1,0.1-0.2,0.1c-0.1,0-1.2,0.2-1.9,0.2c-0.5,0-1.2-0.1-1.8-0.5c-0.7-0.5-1.1-1.3-1.3-2.4
			c-0.1-0.9,0-1.8,0.2-2.6c0-0.1,0.1-0.3,0.2-0.3c0.1-0.1,0.3-0.1,0.4-0.1c0.4,0.1,0.9,0.2,1.3,0.2c0.3,0,0.5,0.1,0.8,0.1
			c0.1,0,0.1,0,0.2,0c0-0.1,0-0.3,0-0.4c-0.2,0.1-0.5-0.1-0.6-0.3l-1.4-3.2c0-0.1,0-0.1,0-0.2V7c0-0.3,0.2-0.5,0.5-0.5
			c0.2,0,0.3-0.3,0.3-0.5V5.6h-3.9V6c0,0.3,0.2,0.5,0.4,0.5h1.6c0.3,0,0.5,0.2,0.5,0.5S16,7.5,15.7,7.5h-1.2v0.4h0.7
			c0.3,0,0.5,0.2,0.5,0.5s-0.2,0.5-0.5,0.5h-0.7v0.4h0.7c0.3,0,0.5,0.2,0.5,0.5s-0.2,0.5-0.5,0.5H14.5z M17,16.8
			c-0.1,0.6-0.2,1.2-0.1,1.8c0.1,0.8,0.4,1.4,0.8,1.7c0.4,0.2,0.8,0.3,1.3,0.3c0.4,0,1.1-0.1,1.5-0.1c-0.3-0.4-0.6-0.7-0.9-0.9
			c-0.2-0.1-0.3-0.4-0.2-0.7c0.1-0.2,0.4-0.3,0.7-0.2c0.7,0.4,1.3,1,1.7,1.8c0.1-0.1,0.1-0.2,0.2-0.3c-0.2,0-0.3-0.2-0.3-0.3
			c-0.1-0.3-0.1-0.6-0.1-0.9c-0.3,0-0.5-0.1-0.6-0.4c-0.1-0.3-0.3-0.7-0.5-0.9c-0.4-0.4-1-0.6-1.7-0.8c-0.2,0-0.5-0.1-0.7-0.1
			C17.6,16.9,17.3,16.8,17,16.8z M23,20.5c0.4,0.1,1.1,0.2,1.5,0.1c0.5,0,0.9-0.1,1.3-0.3c0.4-0.3,0.7-0.9,0.8-1.7
			c0.1-0.6,0-1.2-0.1-1.8c-0.3,0.1-0.6,0.1-0.9,0.1c-0.2,0-0.5,0-0.7,0.1c-0.8,0.1-1.3,0.4-1.7,0.8c-0.4,0.4-0.7,1.1-0.6,1.7
			c0.3-0.3,0.6-0.5,0.9-0.7c0.2-0.1,0.5-0.1,0.7,0.2c0.1,0.2,0.1,0.5-0.2,0.7C23.6,19.8,23.2,20.1,23,20.5z M20,16.3
			c0.4,0.2,0.8,0.4,1,0.7c0.3,0.3,0.5,0.6,0.6,1c0.2-0.4,0.4-0.7,0.6-1c0.3-0.3,0.6-0.5,1-0.7c0.2-1,0-1.5-0.9-2.2
			c-0.1-0.1-0.2-0.2-0.3-0.2c-0.1-0.1-0.3-0.2-0.5-0.3c-0.2,0.1-0.3,0.2-0.5,0.3c-0.1,0.1-0.2,0.2-0.3,0.2
			C20,14.8,19.8,15.3,20,16.3z"/>
	</g>
</g>
</svg>
