<?xml version="1.0" encoding="utf-8"?>
<!-- Generator: Adobe Illustrator 25.0.1, SVG Export Plug-In . SVG Version: 6.00 Build 0)  -->
<svg version="1.1" id="Layer_4" xmlns="http://www.w3.org/2000/svg" xmlns:xlink="http://www.w3.org/1999/xlink" x="0px" y="0px"
	 viewBox="0 0 313.6 803.5" style="enable-background:new 0 0 313.6 803.5;" xml:space="preserve">
<style type="text/css">
	.st0{fill:#16B4C6;}
	.st1{fill:#082947;}
	.st2{fill:#EE9155;}
	.st3{fill:#101B29;}
	.st4{fill:url(#SVGID_1_);}
	.st5{fill:url(#SVGID_2_);}
	.st6{fill:#111B29;}
	.st7{fill:url(#SVGID_3_);}
	.st8{fill:#F3A974;}
	.st9{fill:url(#SVGID_4_);}
	.st10{fill:#1EABBA;}
</style>
<g>
	<g>
		<g>
			<g>
				<g>
					<path class="st0" d="M113.3,740.5c-2.2,0-4-1.8-4-4v-31.7H93c-2.2,0-4-1.8-4-4s1.8-4,4-4h20.3c2.2,0,4,1.8,4,4v35.7
						C117.3,738.7,115.5,740.5,113.3,740.5z"/>
				</g>
				<g>
					<path class="st1" d="M285.8,573.3H283c-2.2,0-4-1.8-4-4s1.8-4,4-4h2.8c2.2,0,4,1.8,4,4C289.8,571.5,288,573.3,285.8,573.3z"/>
				</g>
				<g>
					<path class="st1" d="M188.7,573.3c-1.1,0-2.1-0.4-2.8-1.2c-0.8-0.8-1.2-1.8-1.2-2.8v-11.7c0-2.2,1.8-4,4-4l0,0c2.2,0,4,1.8,4,4
						v7.7h76.5c2.2,0,4,1.8,4,4s-1.8,4-4,4H188.7z"/>
				</g>
				<g>
					<path class="st1" d="M188.7,545.4L188.7,545.4c-2.2,0-4-1.8-4-4v-7.8c0-2.2,1.8-4,4-4l0,0c2.2,0,4,1.8,4,4v7.8
						C192.7,543.6,190.9,545.4,188.7,545.4z"/>
				</g>
				<g>
					<g>
						<path class="st1" d="M157.9,685.7c8.7-0.2,15.8-7.4,15.8-16.2V533.6c0-8.9-7.3-16.2-16.2-16.2H16.2c-8.9,0-16.2,7.3-16.2,16.2
							v135.9c0,8.9,7.3,16.2,16.2,16.2H157.9z"/>
						<path class="st1" d="M30.5,730.6c0,6.4,3.7,7.9,8.2,3.4l58.5-58.6H30.5V730.6z"/>
						<path class="st0" d="M71.9,644.7c0-4.2,1.4-7.8,4.3-10.7c2.8-2.9,6.4-4.4,10.6-4.4s7.8,1.4,10.7,4.3c2.9,2.9,4.3,6.5,4.3,10.7
							s-1.5,7.8-4.4,10.7s-6.5,4.4-10.7,4.4c-4.1,0-7.7-1.5-10.5-4.4C73.3,652.4,71.9,648.9,71.9,644.7z M73.1,620.8v-77.4h27.5
							v77.4H73.1z"/>
					</g>
					<g>
						<path class="st0" d="M144.1,752.6c-8.7-0.2-15.8-7.4-15.8-16.2V600.5c0-8.9,7.3-16.2,16.2-16.2h141.3
							c8.9,0,16.2,7.3,16.2,16.2v135.9c0,8.9-7.3,16.2-16.2,16.2H144.1z"/>
						<path class="st0" d="M271.5,797.5c0,6.4-3.7,7.9-8.2,3.4l-58.5-58.6h66.7V797.5z"/>
						<path class="st1" d="M227.6,687.2h-25.5v-30.6h7.9c5.6,0,9.8-1.1,12.7-3.4c2.9-2.3,4.4-5.5,4.4-9.8c0-3.4-1.1-6.3-3.4-8.6
							c-2.2-2.3-5-3.5-8.3-3.5c-3.5,0-6.2,0.9-8.1,2.8c-2,1.9-3,4.6-3.3,8.1h-25.3v-0.3c0-9.6,3.4-17.3,10.3-23.1s16.1-8.6,27.6-8.6
							c10.5,0,18.9,3,25.3,9.1s9.6,14,9.6,23.9c0,8.2-2.2,15-6.6,20.1s-10.2,7.9-17.3,8.1L227.6,687.2z M198.9,711.8
							c0-4.2,1.5-7.8,4.4-10.7s6.5-4.4,10.7-4.4s7.8,1.4,10.6,4.3c2.8,2.9,4.3,6.5,4.3,10.7s-1.4,7.8-4.3,10.7s-6.4,4.3-10.6,4.3
							c-4.1,0-7.7-1.5-10.6-4.4C200.4,719.5,198.9,716,198.9,711.8z"/>
					</g>
				</g>
			</g>
			<g>
				<g>
					<g>
						<path class="st2" d="M107.2,167.8c0,0-24.9,8.7-32.8,9.9c-5.6,0.9-6.2-7-6.7-11.9c-0.4-4.8,13.1-16.9,27.2-22.9
							C105.8,138.3,108.6,165.9,107.2,167.8z"/>
						<path class="st0" d="M182.6,136.9C164.1,148.8,95.4,177,95.4,177s-6.4-3.4-13-16c-10-18.9-8-28-8-28s40.9-28.3,70.1-44.6
							c23.1-12.9,48.2-6.7,55.7,12.6C206.4,116.8,192.9,130.2,182.6,136.9z"/>
					</g>
				</g>
				<g>
					<g>
						<g>
							<path class="st3" d="M34.6,509c0,0,32.2-8.3,34.6-9c2.6-0.8,6.7-2.3,7.2,6.2c0.5,8.5,0.8,11.2,0.8,11.2s-37.3,0.1-41.3-0.4
								C31.8,516.6,28.7,513.6,34.6,509z"/>
							
								<linearGradient id="SVGID_1_" gradientUnits="userSpaceOnUse" x1="-16913.4453" y1="2665.5186" x2="-16868.4473" y2="2436.5259" gradientTransform="matrix(-0.7386 -0.6742 0.6742 -0.7386 -14105.9668 -9173.1475)">
								<stop  offset="0" style="stop-color:#101E2C"/>
								<stop  offset="1" style="stop-color:#082947"/>
							</linearGradient>
							<path class="st4" d="M165.6,220.3c0,0-80.6,72.5-96.1,87.7c-15.5,15.2,8.4,49.6,37.1,39.9c28.7-9.7,68.1-23.8,89.8-42.5
								c21.6-18.6,33.5-38.1,32.8-64.7C228.4,214,187.3,200.7,165.6,220.3z"/>
							
								<linearGradient id="SVGID_2_" gradientUnits="userSpaceOnUse" x1="-13729.167" y1="1161.4785" x2="-13684.168" y2="932.479" gradientTransform="matrix(-1 0 0 -1 -13614.4932 1371.1095)">
								<stop  offset="0" style="stop-color:#101E2C"/>
								<stop  offset="1" style="stop-color:#082947"/>
							</linearGradient>
							<path class="st5" d="M64.4,319.5c-0.9,26.6,0.9,26.8,0.7,58.9c-0.2,32.2-1.2,124.8-1.2,124.8s2,2.6,4.7,2.5
								c4.1-0.1,4.8-2.3,4.8-2.3s2.3-22.8,7.8-37.4c5.6-14.6,31.9-107.3,36.6-125.8s1.7-33.8-19.8-37.4
								C76.6,299.2,64.8,307.9,64.4,319.5z"/>
						</g>
						<g>
							<path class="st6" d="M225.4,555c0.1-0.8,0.1-1.5,0.3-2.2c1-5.8,4.5-4.6,6.8-3.9c0.4,0.1,1.8,0.5,3.8,1.1
								c2-0.5,3.4-0.9,3.8-1.1c2.3-0.7,5.8-2,6.8,3.9c0.1,0.6,0.2,1.4,0.3,2.2c0.5,8.3,0.8,11,0.8,11s-5.1,0-11.7,0s-11.7,0-11.7,0
								S224.9,563.3,225.4,555z"/>
							<path class="st1" d="M184,250.8c0,0,23.9,117.5,28.6,138.2c4.7,20.7,45.7,18.4,52.3-10.5c6.6-28.9,21.4-87.4,3.6-148.2
								C258.9,197.4,178.9,222.7,184,250.8z"/>
							<path class="st1" d="M209,371.5c2.4,32.6,23.5,181.9,23.5,181.9s0.7,1.4,4.6,0.8c3.8-0.6,4.4-2.9,4.4-2.9s-0.2-20.9,3.6-35.7
								c3.8-14.9,14.6-83.7,17.2-102.2s3-57.3-18.3-58.5C222.7,353.5,208.8,367.7,209,371.5z"/>
						</g>
					</g>
					
						<linearGradient id="SVGID_3_" gradientUnits="userSpaceOnUse" x1="1499.446" y1="1239.1199" x2="1510.4417" y2="988.2205" gradientTransform="matrix(1 0 0 -1 -1304.3164 1371.1095)">
						<stop  offset="0" style="stop-color:#F16234"/>
						<stop  offset="1" style="stop-color:#BE3727"/>
					</linearGradient>
					<path class="st7" d="M171.1,78.8c-33.7,5.1-32.4,35.6-34.8,60.9C130.7,198.3,125,255,125,255s21.2,30.2,75.2,26.5
						c70.1-4.8,75.9-25.2,75.9-25.2s-16.6-96.1-31.3-142.9c-5.1-16.3-23.1-36.4-51-36.6C185.7,76.8,179.4,77.6,171.1,78.8z"/>
					<g>
						<path class="st1" d="M149,48.8c-11.9-7.6-20.3-37.5-6.2-45.8c17.5-10.3,22.1,9.2,33.1,7.7c24-3.2,32.5,11.4,32,30.7
							c-0.3,11.9-8.2,24.3-17.8,30.7c-4.2,2.8-7-17.6-19.9-22C157.3,45.6,149,48.8,149,48.8z"/>
						<path class="st1" d="M158.3,83.5c-1.1,10.2-6.3,32.9,17.5,29.7c27.9-3.7,31.6-33.2,29.7-36.3c-4.2-7.2-15-2.2-22-1.2
							C176.5,76.7,159.2,74.8,158.3,83.5z"/>
						<g>
							<path class="st8" d="M198.1,76.9c-1.4,0-2.7,0-4.2,0.1c-8,0.4-14.2,1.5-22.4,3.3c-2.6,0.5-5,1.2-7.1,2.1
								c-0.3,6.6-5.3,25.1,12.6,23.3C195.4,103.6,199.1,83.1,198.1,76.9z"/>
							<g>
								<path class="st8" d="M195.2,78c-6-16.6-11.1-26.8-18.6-41c-0.1-0.6-22.1,5.9-29.3-4.8c0,0,0.2,15,3.7,27.1
									c3.3,11.4,7.5,17.3,18.2,10.4c0.7,5.7,2,11.6,1.3,16.6c-1.4,10,5.2,13.1,10,13.1C185.4,99.4,201.6,95.6,195.2,78z"/>
								<path class="st8" d="M189.2,40c2,2.6,0.6,7.1-3.3,10.1c-3.8,3-8.5,3.3-10.6,0.7c-2-2.6-0.6-7.1,3.3-10.1
									C182.5,37.7,187.2,37.4,189.2,40z"/>
							</g>
						</g>
					</g>
				</g>
				<g>
					<path class="st1" d="M166.5,112.1l3.6,10.1l7.9,0.3l6.3-13.2C184.2,109.2,171.6,104.8,166.5,112.1z"/>
					<path class="st1" d="M170,122.2l-12.5,106.6l17.6,43.4l17.4-42.2l-14.6-107.5C178,122.4,175.2,117.4,170,122.2z"/>
				</g>
				<g>
					<g>
						<path class="st8" d="M292.4,160.9c0,0,15.3,21.5,18.7,28.7c2.4,5.2-5,7.9-9.5,9.7c-4.5,1.8-19.9-7.9-29.6-19.7
							C264.5,170.4,290.3,160,292.4,160.9z"/>
						<path class="st0" d="M225.6,87.5c20.7,15.1,79,82.1,79,82.1s-1.5,7.1-11.8,17c-15.4,14.8-24.6,15.5-24.6,15.5
							s-22.8-17.9-42.1-35.5c-9.4-8.6-12.2-13.4-12-39.7C214.3,109.9,215.7,80.3,225.6,87.5z"/>
					</g>
				</g>
				<g>
					<path class="st0" d="M204,284c0.6,2.7-1.1,4.9-3.8,4.9h-98.8c-2.8,0-5.5-2.2-6.2-4.9l-17.1-70.4c-0.6-2.7,1.1-4.9,3.8-4.9h98.8
						c2.8,0,5.5,2.2,6.2,4.9L204,284z"/>
					
						<linearGradient id="SVGID_4_" gradientUnits="userSpaceOnUse" x1="1528.3344" y1="1044.3345" x2="1476.8344" y2="1162.8342" gradientTransform="matrix(1 0 0 -1 -1304.3164 1371.1095)">
						<stop  offset="0" style="stop-color:#A7A6A6"/>
						<stop  offset="0.4986" style="stop-color:#BEBEBE"/>
						<stop  offset="0.988" style="stop-color:#D0D1D1"/>
					</linearGradient>
					<path class="st9" d="M204,284l-17.1-70.4c-0.6-2.7-3.4-4.9-6.2-4.9h-4.8c2.8,0,5.5,2.2,6.2,4.9l17.1,70.4
						c0.6,2.7-1.1,4.9-3.8,4.9h4.8C202.9,288.8,204.6,286.6,204,284z"/>
				</g>
				<g>
					<path class="st8" d="M203.9,233c-3-1.4-12.8-4.8-13.9-2.4c-2.6,5.7,4.1,4.8,8.4,11.4c2.8,4.3,16-0.3,16-0.3
						S210.2,235.8,203.9,233z"/>
					<path class="st8" d="M297,185.5c-25.1,8.1-73.7,50.4-85.9,52.6c-7.9,1.4-11.6-5.9-24.9,1.7c-6.5,3.7-4.1,24.1,3.2,25.4
						c16.8,3,23.7-4.6,26.5-16.2c4.9-5.2,64.8-29.4,81-37.5c7.3-3.6,17.9-9.9,16.6-15.6C311.6,186.7,306.3,182.5,297,185.5z"/>
				</g>
				<g>
					<path class="st2" d="M76.6,64.1c2.4-1.3,10-4.5,10.8-2.8c2.1,4.9-7.1,12-12.3,14.5c-3.8,1.9-4.8-1.8-4.8-1.8
						S71.5,66.9,76.6,64.1z"/>
					<path class="st2" d="M59.8,168.9c-7.6-25.3,0.7-79.1,1-93.9c-3.3-7-3.4-11.1-5.4-20.9c-0.7-3.2,20.4-7.3,22.8-3.7
						c1.9,2.9,7.6,17.1-5.5,25.7c-3.3,6.3,6,60.1,8.5,78.1c1.1,8.1,2,20.3-3.4,22.6C69.1,180.2,62.6,178.3,59.8,168.9z"/>
				</g>
				<g>
					<polygon class="st10" points="13.3,63.3 126.1,55.3 126.1,47.5 13.3,39.5 					"/>
					<path class="st1" d="M15.1,64c0,0.7-0.6,1.2-1.2,1.2H11c-0.7,0-1.2-0.6-1.2-1.2V38.7c0-0.7,0.6-1.2,1.2-1.2h2.9
						c0.7,0,1.2,0.6,1.2,1.2V64z"/>
					<path class="st1" d="M127.8,56.2c0,0.7-0.6,1.2-1.2,1.2h-2.9c-0.7,0-1.2-0.6-1.2-1.2v-9.6c0-0.7,0.6-1.2,1.2-1.2h2.9
						c0.7,0,1.2,0.6,1.2,1.2V56.2z"/>
				</g>
			</g>
		</g>
	</g>
</g>
</svg>
