<?xml version="1.0" encoding="utf-8"?>
<!-- Generator: Adobe Illustrator 25.0.1, SVG Export Plug-In . SVG Version: 6.00 Build 0)  -->
<svg version="1.1" id="Layer_4" xmlns="http://www.w3.org/2000/svg" xmlns:xlink="http://www.w3.org/1999/xlink" x="0px" y="0px"
	 viewBox="0 0 238.6 558.7" style="enable-background:new 0 0 238.6 558.7;" xml:space="preserve">
<style type="text/css">
	.st0{fill:#F3A974;}
	.st1{fill:#16B4C6;}
	.st2{fill:#101B29;}
	.st3{fill:url(#SVGID_1_);}
	.st4{fill:url(#SVGID_2_);}
	.st5{fill:#111B29;}
	.st6{fill:#082947;}
	.st7{fill:url(#SVGID_3_);}
	.st8{fill:url(#SVGID_4_);}
	.st9{fill:url(#SVGID_5_);}
</style>
<g>
	<g>
		<g>
			<g>
				<g>
					<g>
						<path class="st0" d="M221.8,158.2c0,0,13.6,22.6,16.4,30.1c2,5.3-5.6,7.5-10.3,8.9c-4.6,1.4-19.2-9.4-28-22
							C193.3,165.6,219.8,157.2,221.8,158.2z"/>
						<path class="st1" d="M160.8,79.9c19.5,16.6,72.5,87.9,72.5,87.9s-2.1,7-13,16c-16.5,13.6-25.8,13.5-25.8,13.5s-26.2-26-44-45
							c-8.7-9.3-12.4-14.1-10.7-42.6C140.8,92.8,151.5,72,160.8,79.9z"/>
					</g>
				</g>
				<g>
					<g>
						<g>
							<path class="st2" d="M210.3,550.3c0,0-32.2-8.3-34.6-9c-2.6-0.8-6.7-2.3-7.2,6.2s-0.8,11.2-0.8,11.2s37.3,0.1,41.3-0.4
								C213.1,557.9,216.3,554.9,210.3,550.3z"/>
							
								<linearGradient id="SVGID_1_" gradientUnits="userSpaceOnUse" x1="-12699.7568" y1="114.0391" x2="-12654.7549" y2="-114.9692" gradientTransform="matrix(0.9933 0.1153 0.1153 -0.9933 12743.0078 1827.5656)">
								<stop  offset="0" style="stop-color:#101E2C"/>
								<stop  offset="1" style="stop-color:#082947"/>
							</linearGradient>
							<path class="st3" d="M183.9,236.6c0,0-1.9,108.4-3.1,130c-1.3,21.7-43,26.2-54.4-1.9c-11.5-28-26.7-67.1-26.8-95.6
								c-0.1-28.5,6.8-50.3,27.4-67.2C147.4,185.2,184.4,207.5,183.9,236.6z"/>
							
								<linearGradient id="SVGID_2_" gradientUnits="userSpaceOnUse" x1="-12494.9209" y1="279.1661" x2="-12449.9209" y2="50.1659" gradientTransform="matrix(1 0 0 -1 12625.1582 530.1176)">
								<stop  offset="0" style="stop-color:#101E2C"/>
								<stop  offset="1" style="stop-color:#082947"/>
							</linearGradient>
							<path class="st4" d="M180.5,360.8c0.9,26.6-0.9,26.8-0.7,58.9c0.2,32.2,1.2,124.8,1.2,124.8s-2,2.6-4.7,2.5
								c-4.1-0.1-4.8-2.3-4.8-2.3s-2.3-22.8-7.8-37.4c-5.6-14.6-31.9-107.3-36.6-125.8s-1.7-33.8,19.8-37.4
								C168.3,340.5,180.1,349.2,180.5,360.8z"/>
						</g>
						<g>
							<path class="st5" d="M88.2,547.7c-0.1-0.8-0.1-1.5-0.3-2.2c-1-5.8-4.5-4.6-6.8-3.9c-0.4,0.1-1.8,0.5-3.8,1.1
								c-2-0.5-3.4-0.9-3.8-1.1c-2.3-0.7-5.8-2-6.8,3.9c-0.1,0.6-0.2,1.4-0.3,2.2c-0.5,8.3-0.8,11-0.8,11s5.1,0,11.7,0
								c6.6,0,11.7,0,11.7,0S88.7,556.1,88.2,547.7z"/>
							<path class="st6" d="M129.5,243.5c0,0-23.9,117.5-28.6,138.2c-4.7,20.7-45.7,18.4-52.3-10.5C42,342.3,27.2,283.8,45,223
								C54.7,190.1,134.7,215.4,129.5,243.5z"/>
							<path class="st6" d="M104.5,364.2C102.1,396.8,81,546.1,81,546.1s-0.7,1.4-4.6,0.8c-3.8-0.6-4.4-2.9-4.4-2.9
								s0.2-20.9-3.6-35.7c-3.8-14.9-14.6-83.7-17.2-102.2c-2.6-18.5-3-57.3,18.3-58.5C90.8,346.3,104.8,360.4,104.5,364.2z"/>
						</g>
					</g>
					
						<linearGradient id="SVGID_3_" gradientUnits="userSpaceOnUse" x1="-3572.1953" y1="405.403" x2="-3561.1951" y2="154.4037" gradientTransform="matrix(-1 0 0 -1 -3454.6001 530.1176)">
						<stop  offset="0" style="stop-color:#F16234"/>
						<stop  offset="1" style="stop-color:#BE3727"/>
					</linearGradient>
					<path class="st7" d="M142.5,71.6c33.7,5.1,32.4,35.6,34.8,60.9c5.6,58.6,8.6,136.4,8.6,136.4s-18.5,9.1-72.5,5.4
						c-70.1-4.8-75.9-25.2-75.9-25.2S54.1,153,68.8,106.2c5.1-16.3,23.1-36.4,51-36.6C127.9,69.5,134.2,70.3,142.5,71.6z"/>
					<g>
						<path class="st6" d="M170.1,48.7c13.3-4.7,28.2-32,16.3-43.3c-14.7-14-23.6,4-34,0.1c-22.7-8.4-34.2,3.9-38,22.8
							c-2.3,11.7,5.8,24.6,13.7,33c4.2-2.6,7.4-14.7,21-16.1C162.8,43.6,170.1,48.7,170.1,48.7z"/>
						<path class="st6" d="M155.2,76.2c1.1,10.2,6.3,32.9-17.5,29.7c-27.9-3.7-31.6-33.2-29.7-36.3c4.2-7.2,15-2.2,22-1.2
							C137.1,69.4,154.3,67.6,155.2,76.2z"/>
						<g>
							<path class="st0" d="M115.4,69.6c1.4,0,2.7,0,4.2,0.1c8,0.4,14.2,1.5,22.4,3.3c2.6,0.5,5,1.2,7.1,2.1
								c0.3,6.6,5.3,25.1-12.6,23.3C118.1,96.4,114.5,75.8,115.4,69.6z"/>
							<g>
								<path class="st0" d="M118.3,70.7c6-16.6,17-27.6,27.6-39.7c0.2-0.5,20.2,10.7,29.6,1.9c0,0-3.5,14.6-9.7,25.6
									c-5.8,10.4-11.2,15.2-20.1,6.1c-1.9,5.4-3.5,9.6-2.8,14.6c1.4,10-5.2,13.1-10,13.1C128.2,92.2,112,88.4,118.3,70.7z"/>
								<path class="st0" d="M132.9,31.1c-2.5,2.1-2.1,6.8,0.9,10.5c3.1,3.8,7.6,5.1,10.1,3.1c2.5-2.1,2.1-6.8-0.9-10.6
									C140,30.4,135.5,29,132.9,31.1z"/>
							</g>
						</g>
					</g>
				</g>
				<g>
					<g>
						<path class="st0" d="M21.1,153.6c0,0-15.3,21.5-18.7,28.7c-2.4,5.2,5,7.9,9.5,9.7c4.5,1.8,19.9-7.9,29.6-19.7
							C49,163.2,23.3,152.7,21.1,153.6z"/>
						<path class="st1" d="M87.9,80.2c-20.7,15.1-79,82.1-79,82.1s1.5,7.1,11.8,17c15.4,14.8,24.6,15.5,24.6,15.5
							s17.1-12.8,36.4-30.4c9.4-8.6,13.3-17.6,17.7-44.9C102.2,102.8,97.9,73,87.9,80.2z"/>
					</g>
				</g>
				<g>
					<path class="st1" d="M109.6,276.7c-0.6,2.7,1.1,4.9,3.8,4.9h98.8c2.8,0,5.5-2.2,6.2-4.9l17.1-70.4c0.6-2.7-1.1-4.9-3.8-4.9
						h-98.8c-2.8,0-5.5,2.2-6.2,4.9L109.6,276.7z"/>
					
						<linearGradient id="SVGID_4_" gradientUnits="userSpaceOnUse" x1="-3544.1699" y1="210.5891" x2="-3595.6702" y2="329.0901" gradientTransform="matrix(-1 0 0 -1 -3454.6001 530.1176)">
						<stop  offset="0" style="stop-color:#A7A6A6"/>
						<stop  offset="0.4986" style="stop-color:#BEBEBE"/>
						<stop  offset="0.988" style="stop-color:#D0D1D1"/>
					</linearGradient>
					<path class="st8" d="M109.6,276.7l17.1-70.4c0.6-2.7,3.4-4.9,6.2-4.9h4.8c-2.8,0-5.5,2.2-6.2,4.9l-17.1,70.4
						c-0.6,2.7,1.1,4.9,3.8,4.9h-4.8C110.6,281.6,108.9,279.4,109.6,276.7z"/>
					<path class="st6" d="M186.3,241.5c1.8-8.1-2.3-14.6-9.1-14.6c-6.8,0-13.8,6.6-15.6,14.6c-1.8,8.1,2.3,14.6,9.1,14.6
						C177.6,256.1,184.5,249.6,186.3,241.5z"/>
					
						<linearGradient id="SVGID_5_" gradientUnits="userSpaceOnUse" x1="170.7472" y1="302.0724" x2="170.7472" y2="235.2026" gradientTransform="matrix(1 0 0 -1 0 530.1176)">
						<stop  offset="0" style="stop-color:#FFFFFF"/>
						<stop  offset="1" style="stop-color:#AAAAAA"/>
					</linearGradient>
					<path class="st9" d="M167.7,241.5c1.5-6.8,6.8-12.6,12.5-14.2c-0.9-0.3-1.9-0.5-2.9-0.5c-6.8,0-13.8,6.6-15.6,14.6
						c-1.8,8.1,2.3,14.6,9.1,14.6c1,0,2.1-0.2,3.1-0.5C168.9,254.1,166.2,248.3,167.7,241.5z"/>
				</g>
				<g>
					<path class="st0" d="M109.7,225.7c3-1.4,12.8-4.8,13.9-2.4c2.6,5.7-4.1,4.8-8.4,11.4c-2.8,4.3-16-0.3-16-0.3
						S103.3,228.5,109.7,225.7z"/>
					<path class="st0" d="M16.6,178.2c25.1,8.1,73.7,50.4,85.9,52.6c7.9,1.4,11.6-5.9,24.9,1.7c6.5,3.7,4.1,24.1-3.2,25.4
						c-16.8,3-23.7-4.6-26.5-16.2c-4.9-5.2-64.8-29.4-81-37.5c-7.3-3.7-17.9-9.9-16.6-15.6C2,179.4,7.2,175.2,16.6,178.2z"/>
				</g>
				<g>
					<g>
						<path class="st0" d="M194.5,90.1c1.5-3,5.4-12.6,3-13.8c-5.6-2.8-5,3.9-11.8,7.9c-4.4,2.6-0.4,16-0.4,16
							S191.4,96.3,194.5,90.1z"/>
						<path class="st0" d="M189,97.1c-1.1-8,7.4-22.4-7.3-28.4c-6.9-2.8-16.9-1.6-18.8,5.6c-1.4,5.2,12.1,1.3,9.3,5.8
							c-7.7,12.3-0.4,19.6,5.7,21.4l0,0l11.5-2.8C189.2,98.1,189.1,97.6,189,97.1z"/>
					</g>
					<path class="st0" d="M237.9,185.2c-6.7-24.5-44.2-72-48.5-86.5l-11.5,2.8c4.9,5.1,26.6,66,33.9,82.5
						c3.3,7.5,9.1,18.3,14.9,17.3C236,199.7,240.4,194.7,237.9,185.2z"/>
				</g>
			</g>
		</g>
	</g>
</g>
</svg>
